<?xml version="1.0" encoding="utf-8"?>
<!-- Generator: Adobe Illustrator 19.0.0, SVG Export Plug-In . SVG Version: 6.00 Build 0)  -->
<svg version="1.1" id="Layer_1" xmlns="http://www.w3.org/2000/svg" xmlns:xlink="http://www.w3.org/1999/xlink" x="0px" y="0px"
	 viewBox="0 0 612 792" style="enable-background:new 0 0 612 792;" xml:space="preserve">
<style type="text/css">
	.st0{fill:#FAA43C;}
	.st1{fill:#562878;}
	.st2{opacity:0.6;fill:#562878;}
	.st3{fill:#F8D6A0;}
	.st4{fill:#E9C17E;}
	.st5{fill:#FBB04B;}
	.st6{fill:#FFFFFF;}
	.st7{fill:#F6CB86;}
	.st8{opacity:0.4;fill:#F6CB86;}
	.st9{fill:#441F61;}
	.st10{opacity:0.4;fill:#441F61;}
	.st11{opacity:0.3;fill:#F6CB86;}
	.st12{fill:#F16164;}
	.st13{fill:#F05151;}
	.st14{fill:#7C3494;}
	.st15{fill:#DBDADA;}
	.st16{fill:#F0DE0D;}
	.st17{opacity:0.5;fill:#F0DE0D;}
	.st18{fill:#FFC513;}
	.st19{fill:#EDE80A;}
	.st20{opacity:0.2;fill:#FFFFFF;}
	.st21{fill:#843732;}
	.st22{fill:#ABC3B4;}
	.st23{fill:#FFDE3E;}
	.st24{fill:#74C055;}
	.st25{fill:#AD2D5C;}
	.st26{fill:#EF4E8C;}
	.st27{fill:#F26424;}
	.st28{fill:#F47D37;}
</style>
<g>
	<g>
		<g>
			<path class="st0" d="M306.3,417.9c0,0,36.7-2,42.7-26c0,0,21.7,1.9,24.3,27.1c0,0-15.2,28.6-54.9,22.6L306.3,417.9z"/>
			<path class="st1" d="M348.9,392c0,0,2.9,18.5,24.3,27.1C370.7,393.9,348.9,392,348.9,392z"/>
			<path class="st2" d="M348.9,392c0,0,2.9,18.5,24.3,27.1C370.7,393.9,348.9,392,348.9,392z"/>
			<path class="st3" d="M411.9,316.9l-38.7-8.6v11.1c-17.7-2.4-16.2,11.3-16.2,11.3c1.5,15.7,19.2,12,19.2,12
				c2.7,33.4-23.8,58.6-23.8,58.6c2.4,4.4,6.4,9.5,12.9,13.7l0,0c25.9-14.5,32.4-72,32.4-72C414.5,340.9,411.9,316.9,411.9,316.9z"
				/>
			<path class="st4" d="M411.9,316.9l-38.7-8.6v11.1c-1.3-0.2-2.5-0.3-3.6-0.3c1.2,4.4,3.7,7.5,6.7,7.6c2.5,0.1,4.8-2,6.4-5.3
				c1.4,2.8,3.4,4.6,5.6,4.7c2,0.1,3.9-1.2,5.3-3.4c1,1.8,2.4,3,4.1,3.2c1.7,0.3,3.3-0.4,4.8-1.8c0.9,2.4,2.4,4.1,4.3,4.4
				c1.6,0.3,3.3-0.5,4.7-2C412.4,321.3,411.9,316.9,411.9,316.9z"/>
			<path class="st4" d="M370.2,319.1c0,0,11.9,2.2,9.8,9.6c0,0-3.6,8.2-14.7,2.3c0,0,10.2,9.7,17-0.8c0,0,4.9-9.6-13.2-14.7
				L370.2,319.1z"/>
			<path class="st4" d="M397.8,343.1c0,0-7.4,0.8-9.7-1.2c0,0,1.8,42-28.7,68.3c1.7,1.7,3.7,3.3,6.1,4.8
				C391.3,400.5,397.8,343.1,397.8,343.1z"/>
			<path class="st4" d="M388,341.9c0,0-2-1.2-2.7-3.1c0,0-2.6,2-5.2,2.4c0,0,1.5,0.7,4.7,0.7c0,0,1.8,2.5,6,3.9L388,341.9z"/>
		</g>
		<g>
			<path class="st5" d="M272.3,430c0,0-36,7.1-47.7-14.7c0,0-20.6,7.2-16.9,32.3c0,0,21.7,24,58.8,8.5L272.3,430z"/>
			<path class="st0" d="M207.7,447.5c0,0,21.7,24,58.8,8.5l2.7-3.3c-33.2,10.6-51.7-3.7-51.7-3.7c13.8-18.6,7.1-33.7,7.1-33.7
				S204,422.4,207.7,447.5z"/>
			<path class="st1" d="M224.6,415.2c0,0,1.8,18.7-16.9,32.3C204,422.4,224.6,415.2,224.6,415.2z"/>
			<path class="st2" d="M224.6,415.2c0,0,1.8,18.7-16.9,32.3C204,422.4,224.6,415.2,224.6,415.2z"/>
			<path class="st3" d="M145.1,357.8l35.4-17.8l2.7,10.8c16.6-6.6,18.5,7,18.5,7c2.4,15.6-15.7,16.4-15.7,16.4
				c5.6,33,37.4,51,37.4,51c-1.3,4.8-3.9,10.8-9.2,16.5l0,0c-28.6-7.7-49-61.9-49-61.9C148.6,381.7,145.1,357.8,145.1,357.8z"/>
			<path class="st4" d="M145.1,357.8l35.4-17.8l2.7,10.8c1.2-0.5,2.3-0.8,3.4-1.1c-0.1,4.6-1.8,8.2-4.7,9c-2.4,0.7-5.2-0.8-7.5-3.5
				c-0.6,3.1-2.1,5.3-4.3,5.9c-1.9,0.5-4-0.3-6-2c-0.5,2-1.6,3.5-3.2,4.1c-1.5,0.7-3.3,0.4-5.1-0.5c-0.3,2.6-1.3,4.5-3.1,5.3
				c-1.5,0.6-3.3,0.3-5.1-0.8C145.8,362.2,145.1,357.8,145.1,357.8z"/>
			<path class="st4" d="M186.2,349.8c0,0-11,5.1-7.1,11.7c0,0,5.5,7.1,14.8-1.4c0,0-7.5,11.9-16.7,3.4c0,0-7.1-8.1,9.2-17.5
				L186.2,349.8z"/>
			<path class="st4" d="M165.3,379.8c0,0,7.4-1,9.1-3.5c0,0,8.5,41.1,44.6,59.2c-1.3,2.1-2.8,4.1-4.7,6.2
				C185.6,433.9,165.3,379.8,165.3,379.8z"/>
			<path class="st4" d="M174.4,376.2c0,0,1.7-1.6,1.8-3.6c0,0,3.1,1.3,5.6,1.1c0,0-1.3,1-4.4,1.8c0,0-1.1,2.9-4.8,5.3L174.4,376.2z"
				/>
			
				<ellipse transform="matrix(-0.3925 -0.9198 0.9198 -0.3925 -119.0204 628.5238)" class="st3" cx="148.1" cy="353.6" rx="12.2" ry="6.9"/>
			<path class="st4" d="M146,351.6c-1.4-3.4-2-6.7-1.8-9.5c3.4-0.5,7.8,3.1,10.2,8.8c1.7,4,2,7.9,1.1,10.7
				C152.1,360.8,148.3,357,146,351.6z"/>
			
				<ellipse transform="matrix(-0.3925 -0.9198 0.9198 -0.3925 -102.7471 626.7585)" class="st3" cx="155.6" cy="347.3" rx="13.9" ry="7.8"/>
			<path class="st4" d="M156.6,335.9c2.4,1.7,4.6,4.6,6.2,8.3c2.4,5.5,2.4,11.1,0.4,14c-2.8-1.8-5.4-5.5-6.7-10.3
				C155.2,343.3,155.3,338.9,156.6,335.9z"/>
			
				<ellipse transform="matrix(-0.9622 0.2724 -0.2724 -0.9622 420.4196 630.7944)" class="st3" cx="166.4" cy="344.6" rx="7.8" ry="13.9"/>
			<path class="st4" d="M174,342.4c1.4,4.8,1.1,9.4-0.4,12.4c-2.2-2-4.2-5.3-5.4-9.3c-1.4-4.8-1.1-9.4,0.4-12.4
				C170.8,335.2,172.8,338.5,174,342.4z"/>
			
				<ellipse transform="matrix(-0.9622 0.2724 -0.2724 -0.9622 442.8904 622.9347)" class="st3" cx="178.2" cy="342.2" rx="7.8" ry="13.9"/>
		</g>
		<path class="st5" d="M264.6,532c10.1,1.9,20.5,2.9,31.1,2.9c17,0,33.5-2.6,48.9-7.3l-14.7-84c0,0-0.8-28.1-26.3-25.5l-22.6,7.6
			c0,0-23.1,4.1-21.1,28.2C260,453.9,264.1,505,264.6,532z"/>
		<path class="st0" d="M269.2,452.6c-3.2,1-6.2,1.8-9.1,2.4c0,0.4-1.2,1.1-1.2,1.7c0,0.5,1.4,0.9,1.4,1.5c2.8,0,4-1.4,6.1-2.2
			L269.2,452.6z"/>
		<path class="st6" d="M299.1,419.7l-18,6.1c0,0-1.2,0.2-3,0.8l0,0c0,0,13.3,15.7,30.5,0C308.6,426.5,312.3,422,299.1,419.7z"/>
		<path class="st7" d="M301,402.2l3.9,23.6c0,0-10.5,10.5-23.8,0l-1.5-19.5C279.6,406.2,284.8,399,301,402.2z"/>
		<path class="st8" d="M301,402.2c-16.2-3.1-21.4,4.1-21.4,4.1l1,12.9c8.2-2,17.2-9.3,21.1-12.7L301,402.2z"/>
		<path class="st9" d="M325.9,292.1c0,0,12.5,25.6-6.6,38.6l-8.5-38.6l11-4.5L325.9,292.1z"/>
		<path class="st10" d="M325.9,292.1l-4.1-4.5l-11,4.5l3.3,15c12.3-5.3,12.8-12.6,12.8-12.6l0,0C326.3,293,325.9,292.1,325.9,292.1z
			"/>
		<path class="st3" d="M230,382.2c0,0,1.2,32,62.8,22.5c0,0,45.8-4.2,32.6-63.3l-8.4-45.6c0,0-1.4-23.9-46.6-14.6
			c0,0-52.9,7.1-48.4,39.4L230,382.2z"/>
		<path class="st8" d="M232.6,367.4c4-4.5,4.8-9.8,4.8-9.8l-4.8-5.3l-3.8,2.7l-1.8,4.1l3,23c0,0,0.7,19.3,29.8,23.4
			C232.6,399.3,232.6,367.4,232.6,367.4z"/>
		<path class="st4" d="M316.9,295.8c0,0-1.2-20.5-37.3-16.1c3.9,6.1,9,21.7,10.6,61.2c0,0,17.2-4.7,4.3,19.5c0,0,3.6,29.3-1.6,44.3
			c2-0.2,45.4-5.6,32.5-63.3L316.9,295.8z"/>
		<path class="st11" d="M318,301.6l-1.1-5.8c0,0-1.4-23.9-46.6-14.6c0,0-12.7,1.7-25.2,7.3l-1.8,3.7c0,0-4.5,20.4,1.6,28.9
			c0,0,12.4-4.1,12.8-21.4c0,0,31.5,7.4,38-1.6C295.7,298.1,306.3,305.9,318,301.6L318,301.6z"/>
		<path class="st1" d="M216.1,314c0,0-8.1,16.8,10.7,19.7c0,0,10.1-2.9,13,8.2l3.4,15.7l7.9-2.2l-6.3-34.2c0,0,12.6-9.5,8.7-28
			c0,0,35.1,12.4,40.9-0.8c0,0,35.3,16.4,33.2-10.7c0,0,0.1-31.2-39.9-16.6c0,0-10.7-23.2-30.6-3.9c0,0-17-15-34.5,3.5
			c0,0-7.5,8.7-2.4,21.7C220.4,286.3,201.5,296.8,216.1,314z"/>
		<path class="st3" d="M235,340c0,0-14.4-24-21.7,2.8c0,0-2,9,3.2,16.3c0,0,8.6,12.8,20.9-1.4L235,340z"/>
		<path class="st7" d="M235,340c0,0-17.6-13.8-14.4,8.3c0,0,2.6,16.8,16.8,9.3L235,340z"/>
		<path class="st1" d="M276.6,305.1l1.5,6.4c0,0-12.2,0.2-19.5,4.1l-1.7-5.3C256.9,310.4,262.9,307.6,276.6,305.1z"/>
		<path class="st1" d="M290,304.8l0.2,6.6c0,0,11.9-2.9,19.9-0.9l0.3-5.5C310.5,304.9,303.9,303.8,290,304.8z"/>
		<ellipse class="st1" cx="272" cy="327.5" rx="4.6" ry="8.3"/>
		<ellipse class="st1" cx="300.2" cy="326.1" rx="4.6" ry="8.3"/>
		<path class="st2" d="M290,304.8l0.2,6.6c0,0,11.9-2.9,19.9-0.9l0.3-5.5C310.5,304.9,303.9,303.8,290,304.8z"/>
		<ellipse class="st2" cx="300.2" cy="326.1" rx="4.6" ry="8.3"/>
		<path class="st1" d="M257.7,369.1c0,0,34.5,3.5,62.7-7.9c0,0,2.5,34-25.9,37.2C294.4,398.4,261,404.7,257.7,369.1z"/>
		<path class="st1" d="M306.3,386.4c0,0-0.6-19.5-26.7-12.2c0,0-11.4,4.1-4.9,18.7C274.7,392.9,288.3,400.5,306.3,386.4z"/>
		<path class="st6" d="M311.3,364.4c-18,5.3-36.8,5.5-46.6,5.2l2,9.5c0,0,29.5,1.9,46.5-6L311.3,364.4z"/>
		<path class="st12" d="M292.2,386.4c0,0-15.7-5-23,6.6l0,0c10.8,8.2,25.2,5.5,25.2,5.5c10.8-1.2,17.1-6.9,20.8-13.4
			C315.2,384.9,302.9,376.1,292.2,386.4z"/>
		<path class="st13" d="M292.2,386.4c0,0-15.7-5-23,6.6c2.3,1.8,4.8,3,7.3,3.9c2.5-3.4,7.6-8.2,16.7-7.5c3.6,0.5,7.7,2.6,7.7,2.6
			c-1.7-2.1-3.6-3.5-5.2-4.3c3.6-2,10.6-4.7,18.4-0.9c0.4-0.6,0.8-1.2,1.1-1.8C315.2,384.9,302.9,376.1,292.2,386.4z"/>
		<path class="st9" d="M327.5,279.1c0,0.1-5.1,23.6-33.4,7.4c0,0-2.4-10.3-12.1-10.9c0,0,12.9,14.4,1,17.4c0,0-19.6,1.6-31.5-5.5
			c0,0-3.5-4.5-8.2-3.2c0,0,8,1.9,7.4,14.8c0,0-1.8,19.2-15.8,23.2c0,0,2.2,1.2,6.8,1c0,0-4.5,3.8-14.7,0.8c0,0-6-0.8-8.7,1.1
			c0,0-3.6-0.7-2.2-11.2c0,0-8.1,16.8,10.7,19.7c0,0,10.1-2.9,13,8.2l3.4,15.7l7.9-2.2l-6.3-34.2c0,0,12.6-9.5,8.7-28
			c0,0,35.1,12.4,40.9-0.8c0,0,35.3,16.4,33.2-10.7C327.7,281.6,327.7,280.6,327.5,279.1z"/>
		<path class="st9" d="M234.4,260.4c0,0,9.4-5.1,22.9,0.7c0,0-17-15-34.5,3.5c0,0-4.4,5.2-4.2,13.4c0,0,0,0,0,0c0,0.3,0,0.7,0.1,1
			c0,0,0,0.1,0,0.1c0,0.3,0.1,0.6,0.1,1c0,0.1,0,0.1,0,0.2c0,0.3,0.1,0.6,0.1,0.9c0,0.1,0,0.2,0,0.2c0.1,0.3,0.1,0.6,0.2,0.9
			c0,0.1,0,0.2,0.1,0.3c0.1,0.3,0.1,0.6,0.2,0.9c0,0.1,0.1,0.2,0.1,0.3c0.1,0.3,0.2,0.6,0.3,0.9c0,0.1,0.1,0.2,0.1,0.3
			c0.1,0.4,0.3,0.8,0.4,1.2c0,0,0,0-0.1,0c0,0,0,0,0,0c0,0-0.1,0.1-0.2,0.1c0,0,0,0,0,0c-0.1,0-0.2,0.1-0.3,0.2c0,0,0,0,0,0
			c-0.1,0.1-0.2,0.1-0.3,0.2c0,0,0,0,0,0c-0.1,0.1-0.3,0.2-0.4,0.3c0,0,0,0-0.1,0.1c-0.1,0.1-0.3,0.2-0.4,0.3c0,0-0.1,0-0.1,0.1
			c-0.2,0.1-0.3,0.2-0.5,0.4c0,0-0.1,0-0.1,0.1c-0.2,0.1-0.4,0.3-0.6,0.5c0,0,0,0,0,0l0,0c-4.4,3.7-10.9,11.9-2.9,23.3
			c0-0.5-1.6-21,14.4-27.3c-7.3-10,1.3-17.1,1.9-17.6c4.4-3,10.5-4.5,19.2-2.6C250,264.3,245.5,258.6,234.4,260.4z"/>
		<path class="st14" d="M287.9,265c0,0-10.7-23.2-30.6-3.9C257.3,261.1,272.9,248.2,287.9,265z"/>
		<path class="st14" d="M327.5,279.1c-1-7.1-6.8-26-39.6-14.1C287.9,265,319.5,258.8,327.5,279.1z"/>
		<path class="st15" d="M312,367.8l-0.7-3.5c-18,5.3-36.8,5.5-46.6,5.2l0.8,3.7C275.6,373.6,294.2,373.2,312,367.8z"/>
		<g>
			
				<rect x="477.2" y="235.2" transform="matrix(0.3118 -0.9501 0.9501 0.3118 85.0287 638.8817)" class="st16" width="12.7" height="51"/>
			<path class="st17" d="M479.3,266.1c1-1.9,1.8-3.8,2.5-5.9c0.7-2,1.2-4.1,1.5-6.2l-11.5-3.8c-3.3,3.8-7,7.1-11,9.8L479.3,266.1z"
				/>
			<g>
				<g>
					<path class="st18" d="M444.4,279.1l-8.1,24.5c-5.1,15.6-28.3,21.6-52.8,13.5c-24.5-8-39.7-26.6-34.5-42.2l8.1-24.5l6.8,2.2
						l-8.1,24.5c-3.8,11.5,10,26.7,30,33.2c20,6.6,40.1,2.4,43.9-9l8.1-24.5L444.4,279.1z"/>
				</g>
				<path class="st17" d="M444.4,279.1l-6.8-2.2l-8.1,24.5c-3.8,11.5-23.8,15.6-43.9,9c-0.2-0.1-0.4-0.1-0.6-0.2
					c-3,1.8-6.4,3-9.7,3.8c2.6,1.2,5.3,2.3,8.1,3.2c24.5,8,47.7,2.1,52.8-13.5L444.4,279.1z"/>
				<g>
					<path class="st19" d="M470.9,198.2l-8.1,24.5l-6.8-2.2l8.1-24.5c3.8-11.5-10-26.7-30-33.2c-20-6.6-40.1-2.4-43.9,9l-8.1,24.5
						l-6.8-2.2l8.1-24.5c5.1-15.6,28.3-21.6,52.8-13.5C460.8,164,476,182.6,470.9,198.2z"/>
				</g>
				<path class="st18" d="M436.4,156c-2.9-0.9-5.7-1.7-8.5-2.2c-1.5,2.5-3.3,4.6-5.2,6.4c3.8,0.5,7.6,1.4,11.5,2.6
					c20,6.6,33.8,21.8,30,33.2l-8.1,24.5l6.8,2.2l8.1-24.5C476,182.6,460.8,164,436.4,156z"/>
			</g>
			<g>
				<path class="st18" d="M425.4,186.8c34.9,11.5,55.9,42.9,47,70.2c-9,27.3-44.5,40.2-79.4,28.8l-48.1-15.8l32.5-99L425.4,186.8z"
					/>
				<path class="st20" d="M374.5,179.6l-4,12.1c59.2,10.5,92.2,34,92.2,34C451.5,201.1,392.1,184.2,374.5,179.6z"/>
				<path class="st17" d="M392.9,285.8c34.9,11.5,70.5-1.4,79.4-28.8c2.8-8.6,2.7-17.6,0.1-26.2c-26.5,62.3-119.3,30-119.3,30
					l-6,2.1l-2.3,7.1L392.9,285.8z"/>
				
					<ellipse transform="matrix(0.3118 -0.9502 0.9502 0.3118 38.9436 494.8686)" class="st19" cx="361.1" cy="220.6" rx="52.1" ry="7.4"/>
				<path class="st16" d="M374.2,176.8c-4,6.1-10.8,20.4-17.9,42.1c-7.1,21.7-10.1,37.3-10.5,44.6c0,0.5,0.3,1,0.8,1.2
					c0.5,0.2,1.1,0,1.4-0.5c4-6.1,10.8-20.4,17.9-42.1c7.1-21.7,10.1-37.3,10.5-44.6c0-0.5-0.3-1-0.8-1.2
					C375.1,176.2,374.5,176.4,374.2,176.8z"/>
			</g>
			<path class="st19" d="M493.9,264.1c-3.3,10,2.2,20.8,12.2,24.1l11.9-36.3C507.9,248.6,497.1,254.1,493.9,264.1z"/>
			<path class="st16" d="M506,288.2l5.3-16c-12.9,1.3-17.4-8.1-17.4-8.1C490.6,274.1,496,284.9,506,288.2z"/>
			<path class="st21" d="M522.5,245c1.7,0.6,2.6,2.4,2.1,4.1l-14.9,45.3c-0.6,1.7-2.4,2.6-4.1,2.1l0,0c-1.7-0.6-2.6-2.4-2.1-4.1
				l14.9-45.3C519,245.4,520.8,244.5,522.5,245L522.5,245z"/>
		</g>
		
			<ellipse transform="matrix(0.1554 -0.9879 0.9879 0.1554 34.9905 667.8389)" class="st3" cx="408" cy="313.5" rx="12.2" ry="6.9"/>
		<path class="st4" d="M409.6,311c0.6-3.6,0.3-7-0.6-9.7c-3.4,0.3-6.8,4.9-7.7,11c-0.7,4.2,0,8.2,1.5,10.6
			C405.9,321.4,408.7,316.8,409.6,311z"/>
		
			<ellipse transform="matrix(0.1554 -0.9879 0.9879 0.1554 31.6849 655.5334)" class="st3" cx="399.2" cy="309.2" rx="13.9" ry="7.8"/>
		<path class="st4" d="M395.4,298.5c-1.9,2.3-3.4,5.6-4,9.6c-0.9,5.9,0.4,11.3,3.1,13.7c2.3-2.4,3.9-6.7,4-11.7
			C398.7,305.3,397.4,301,395.4,298.5z"/>
		
			<ellipse transform="matrix(0.9996 2.858200e-002 -2.858200e-002 0.9996 8.9972 -10.9648)" class="st3" cx="388" cy="309.2" rx="7.8" ry="13.9"/>
		<path class="st4" d="M380.2,309c-0.1,5,1.2,9.4,3.4,11.9c1.7-2.5,2.8-6.2,2.9-10.3c0.1-5-1.2-9.4-3.4-11.9
			C381.5,301.2,380.3,304.9,380.2,309z"/>
		
			<ellipse transform="matrix(0.9996 2.858836e-002 -2.858836e-002 0.9996 9.011 -10.6237)" class="st3" cx="376" cy="309.8" rx="7.8" ry="13.9"/>
		<path class="st6" d="M331.9,455.1c-27,14.9-59.7,12.1-71,10.5c0.5,6.8,1.1,15.8,1.8,25.4c38.5,8.3,62.2-1.9,73.8-9.8L331.9,455.1z
			"/>
		<path class="st0" d="M280.9,534.3c-10.2-24.7-11.7-81.6-11.7-81.6c-3,4-7.4,5.3-8.9,5.6c1,13,3.9,51.5,4.3,73.7
			C269.9,533,275.4,533.8,280.9,534.3z"/>
		<path class="st22" d="M260.9,465.7c0,0.1,0,0.1,0,0.2c0.1,0.7,0.1,1.4,0.2,2.1c0,0.2,0,0.4,0,0.6c0,0.7,0.1,1.4,0.2,2.1
			c0,0.2,0,0.4,0,0.7c0.1,1.8,0.3,3.8,0.4,5.8c0,0.2,0,0.4,0,0.6c0.1,0.8,0.1,1.6,0.2,2.5c0,0.3,0,0.5,0.1,0.8
			c0.1,0.8,0.1,1.6,0.2,2.5c0,0.3,0,0.5,0.1,0.8c0.1,2.2,0.3,4.4,0.4,6.7c0,0,0,0.1,0,0.1c3.3,0.7,6.4,1.3,9.4,1.7
			c-1.1-9.7-1.8-19-2.3-26.2C266.2,466.3,263.1,466,260.9,465.7z"/>
		<polygon class="st6" points="322.4,434.5 309.8,438.2 311.2,442.6 323.4,438.5 		"/>
		<g>
			<path class="st6" d="M315.4,446.5L315.4,446.5l-1.6,1.2l-0.7-1.5l2.1-1.6l1.7-0.4l2,9l-2,0.4L315.4,446.5z"/>
			<path class="st6" d="M327.6,446.6c0.6,2.8-0.1,4.9-2.4,5.5c-2.3,0.5-3.8-1.4-4.4-3.9c-0.6-2.6,0.1-4.9,2.4-5.4
				C325.7,442.2,327.1,444.1,327.6,446.6z M322.9,447.6c0.4,2.1,1.2,2.9,2,2.8c0.8-0.2,1-1.3,0.6-3.4c-0.4-2-1.1-3-1.9-2.8
				C322.8,444.5,322.5,445.6,322.9,447.6z"/>
		</g>
	</g>
	<polygon class="st6" points="178.2,199.4 180.4,203.4 184.4,205.6 180.4,207.8 178.2,211.8 176,207.8 172,205.6 176,203.4 	"/>
	<polygon class="st6" points="499.1,202.7 501.3,206.7 505.4,208.9 501.3,211.1 499.1,215.1 496.9,211.1 492.9,208.9 496.9,206.7 	
		"/>
	<polygon class="st6" points="492.9,321.3 495.1,325.3 499.1,327.5 495.1,329.7 492.9,333.7 490.7,329.7 486.7,327.5 490.7,325.3 	
		"/>
	<polygon class="st6" points="135.8,479.2 138,483.2 142,485.4 138,487.6 135.8,491.7 133.6,487.6 129.6,485.4 133.6,483.2 	"/>
	<polygon class="st6" points="186.7,285.6 188.9,289.6 192.9,291.8 188.9,294 186.7,298 184.5,294 180.4,291.8 184.5,289.6 	"/>
	<polygon class="st6" points="243.4,546.2 245.6,550.2 249.6,552.4 245.6,554.6 243.4,558.7 241.2,554.6 237.2,552.4 241.2,550.2 	
		"/>
	<polygon class="st6" points="307.7,224.3 309.9,228.3 313.9,230.5 309.9,232.7 307.7,236.8 305.5,232.7 301.5,230.5 305.5,228.3 	
		"/>
	<polygon class="st6" points="108.9,270.6 111.1,274.6 115.1,276.8 111.1,279.1 108.9,283.1 106.7,279.1 102.6,276.8 106.7,274.6 	
		"/>
	<polygon class="st6" points="457.3,470.2 459.5,474.2 463.6,476.4 459.5,478.6 457.3,482.7 455.1,478.6 451.1,476.4 455.1,474.2 	
		"/>
	<g>
		<g>
			<path class="st23" d="M267,154.4l-1.2-2.3c6.4-6.5,5.4-12.1,5.4-12.1l1.9,3.4C273.6,147.1,267,154.4,267,154.4z"/>
			<path class="st23" d="M279.8,151.5c0,0,0.2,5.1-4,13.3c0,0-1.1-0.8-1.8-2.5c0,0,4.5-10.6,3.5-13
				C277.4,149.2,279.1,149.6,279.8,151.5z"/>
			<path class="st23" d="M282.1,173.7c0,0-0.7-4.1,3.5-12.3c0,0,1.6-0.5,2.4,1.2c0,0-4.6,10.9-3.5,13.3
				C284.4,176,282.7,175.6,282.1,173.7z"/>
			<path class="st23" d="M267,154.4l-1.2-2.3c6.4-6.5,5.4-12.1,5.4-12.1l1.9,3.4C273.6,147.1,267,154.4,267,154.4z"/>
			<path class="st23" d="M279.8,151.5c0,0,0.2,5.1-4,13.3c0,0-1.1-0.8-1.8-2.5c0,0,4.5-10.6,3.5-13
				C277.4,149.2,279.1,149.6,279.8,151.5z"/>
			<path class="st23" d="M282.1,173.7c0,0-0.7-4.1,3.5-12.3c0,0,1.6-0.5,2.4,1.2c0,0-4.6,10.9-3.5,13.3
				C284.4,176,282.7,175.6,282.1,173.7z"/>
			<path class="st23" d="M267,154.4l-1.2-2.3c6.4-6.5,5.4-12.1,5.4-12.1l1.9,3.4C273.6,147.1,267,154.4,267,154.4z"/>
			<path class="st23" d="M279.8,151.5c0,0,0.2,5.1-4,13.3c0,0-1.1-0.8-1.8-2.5c0,0,4.5-10.6,3.5-13
				C277.4,149.2,279.1,149.6,279.8,151.5z"/>
			<path class="st23" d="M282.1,173.7c0,0-0.7-4.1,3.5-12.3c0,0,1.6-0.5,2.4,1.2c0,0-4.6,10.9-3.5,13.3
				C284.4,176,282.7,175.6,282.1,173.7z"/>
			<path class="st23" d="M267,154.4l-1.2-2.3c6.4-6.5,5.4-12.1,5.4-12.1l1.9,3.4C273.6,147.1,267,154.4,267,154.4z"/>
			<path class="st23" d="M279.8,151.5c0,0,0.2,5.1-4,13.3c0,0-1.1-0.8-1.8-2.5c0,0,4.5-10.6,3.5-13
				C277.4,149.2,279.1,149.6,279.8,151.5z"/>
			<path class="st23" d="M282.1,173.7c0,0-0.7-4.1,3.5-12.3c0,0,1.6-0.5,2.4,1.2c0,0-4.6,10.9-3.5,13.3
				C284.4,176,282.7,175.6,282.1,173.7z"/>
			<path class="st23" d="M296,172.7l-1.2-2c0,0-7.5,4.7-12.7,3.1C282.1,173.7,283.2,180.1,296,172.7z"/>
			<path class="st23" d="M279.8,151.5c0,0-2.4-3.7-12.8,2.9c0,0-1.3-1.1-1.2-2.3C265.7,152.1,277.5,144.2,279.8,151.5z"/>
			<path class="st23" d="M273.9,162.2c0,0,2.1,3.9,13-2c0,0,1.2,1.2,1.1,2.4C288,162.7,275.7,169.6,273.9,162.2z"/>
		</g>
		<path class="st23" d="M273,143.3c0,0-3.3-4.2-6.5-5l0.7-2.3C267.1,136,272.6,138,273,143.3z"/>
	</g>
	<g>
		<g>
			<path class="st23" d="M110.1,390.2l-1.2-2.3c6.4-6.5,5.4-12.1,5.4-12.1l1.9,3.4C116.7,382.9,110.1,390.2,110.1,390.2z"/>
			<path class="st23" d="M122.9,387.3c0,0,0.2,5.1-4,13.3c0,0-1.1-0.8-1.8-2.5c0,0,4.5-10.6,3.5-13
				C120.6,385,122.2,385.4,122.9,387.3z"/>
			<path class="st23" d="M125.2,409.5c0,0-0.7-4.1,3.5-12.3c0,0,1.6-0.5,2.4,1.2c0,0-4.6,10.9-3.5,13.3
				C127.6,411.8,125.9,411.4,125.2,409.5z"/>
			<path class="st23" d="M110.1,390.2l-1.2-2.3c6.4-6.5,5.4-12.1,5.4-12.1l1.9,3.4C116.7,382.9,110.1,390.2,110.1,390.2z"/>
			<path class="st23" d="M122.9,387.3c0,0,0.2,5.1-4,13.3c0,0-1.1-0.8-1.8-2.5c0,0,4.5-10.6,3.5-13
				C120.6,385,122.2,385.4,122.9,387.3z"/>
			<path class="st23" d="M125.2,409.5c0,0-0.7-4.1,3.5-12.3c0,0,1.6-0.5,2.4,1.2c0,0-4.6,10.9-3.5,13.3
				C127.6,411.8,125.9,411.4,125.2,409.5z"/>
			<path class="st23" d="M110.1,390.2l-1.2-2.3c6.4-6.5,5.4-12.1,5.4-12.1l1.9,3.4C116.7,382.9,110.1,390.2,110.1,390.2z"/>
			<path class="st23" d="M122.9,387.3c0,0,0.2,5.1-4,13.3c0,0-1.1-0.8-1.8-2.5c0,0,4.5-10.6,3.5-13
				C120.6,385,122.2,385.4,122.9,387.3z"/>
			<path class="st23" d="M125.2,409.5c0,0-0.7-4.1,3.5-12.3c0,0,1.6-0.5,2.4,1.2c0,0-4.6,10.9-3.5,13.3
				C127.6,411.8,125.9,411.4,125.2,409.5z"/>
			<path class="st23" d="M110.1,390.2l-1.2-2.3c6.4-6.5,5.4-12.1,5.4-12.1l1.9,3.4C116.7,382.9,110.1,390.2,110.1,390.2z"/>
			<path class="st23" d="M122.9,387.3c0,0,0.2,5.1-4,13.3c0,0-1.1-0.8-1.8-2.5c0,0,4.5-10.6,3.5-13
				C120.6,385,122.2,385.4,122.9,387.3z"/>
			<path class="st23" d="M125.2,409.5c0,0-0.7-4.1,3.5-12.3c0,0,1.6-0.5,2.4,1.2c0,0-4.6,10.9-3.5,13.3
				C127.6,411.8,125.9,411.4,125.2,409.5z"/>
			<path class="st23" d="M139.1,408.5l-1.2-2c0,0-7.5,4.7-12.7,3.1C125.2,409.5,126.3,416,139.1,408.5z"/>
			<path class="st23" d="M122.9,387.3c0,0-2.4-3.7-12.8,2.9c0,0-1.3-1.1-1.2-2.3C108.9,387.9,120.6,380,122.9,387.3z"/>
			<path class="st23" d="M117.1,398c0,0,2.1,3.9,13-2c0,0,1.2,1.2,1.1,2.4C131.1,398.5,118.8,405.4,117.1,398z"/>
		</g>
		<path class="st23" d="M116.1,379.1c0,0-3.3-4.2-6.5-5l0.7-2.3C110.3,371.8,115.7,373.8,116.1,379.1z"/>
	</g>
	<g>
		<path class="st24" d="M185.8,236.1l1.3-3.3c12.3,1,17.2-4.8,17.2-4.8l-1.9,4.8C199,236.7,185.8,236.1,185.8,236.1z"/>
		<path class="st24" d="M199.8,246.9c0,0-5.4,4.6-17.5,7.3c0,0,0.1-3.1,1.6-4c0,0,14.6-4.4,16.3-7.6
			C200.2,242.5,201.2,244.6,199.8,246.9z"/>
		<path class="st24" d="M185.8,236.1l1.3-3.3c12.3,1,17.2-4.8,17.2-4.8l-1.9,4.8C199,236.7,185.8,236.1,185.8,236.1z"/>
		<path class="st24" d="M199.8,246.9c0,0-5.4,4.6-17.5,7.3c0,0,0.1-3.1,1.6-4c0,0,14.6-4.4,16.3-7.6
			C200.2,242.5,201.2,244.6,199.8,246.9z"/>
		<path class="st24" d="M185.8,236.1l1.3-3.3c12.3,1,17.2-4.8,17.2-4.8l-1.9,4.8C199,236.7,185.8,236.1,185.8,236.1z"/>
		<path class="st24" d="M199.8,246.9c0,0-5.4,4.6-17.5,7.3c0,0,0.1-3.1,1.6-4c0,0,14.6-4.4,16.3-7.6
			C200.2,242.5,201.2,244.6,199.8,246.9z"/>
		<path class="st24" d="M185.8,236.1l1.3-3.3c12.3,1,17.2-4.8,17.2-4.8l-1.9,4.8C199,236.7,185.8,236.1,185.8,236.1z"/>
		<path class="st24" d="M199.8,246.9c0,0-5.4,4.6-17.5,7.3c0,0,0.1-3.1,1.6-4c0,0,14.6-4.4,16.3-7.6
			C200.2,242.5,201.2,244.6,199.8,246.9z"/>
		<path class="st24" d="M185.5,268.8l2.7-1.6c0,0-6.5-10-4.4-17.1C183.8,250.1,176.8,251.6,185.5,268.8z"/>
		<path class="st24" d="M199.8,246.9c0,0,1.8-5.7-14-10.8c0,0,0-2.3,1.3-3.3C187.2,232.8,205.4,238.3,199.8,246.9z"/>
		<path class="st24" d="M202.4,232.8c0,0,1.5-7-0.3-11.1l3-1.2C205.1,220.5,207.7,227.9,202.4,232.8z"/>
	</g>
	<g>
		<path class="st24" d="M428.3,384.2l1.3-3.3c12.3,1,17.2-4.8,17.2-4.8l-1.9,4.8C441.6,384.8,428.3,384.2,428.3,384.2z"/>
		<path class="st24" d="M442.3,395c0,0-5.4,4.6-17.5,7.3c0,0,0.1-3.1,1.6-4c0,0,14.6-4.4,16.3-7.6
			C442.7,390.6,443.7,392.7,442.3,395z"/>
		<path class="st24" d="M428.3,384.2l1.3-3.3c12.3,1,17.2-4.8,17.2-4.8l-1.9,4.8C441.6,384.8,428.3,384.2,428.3,384.2z"/>
		<path class="st24" d="M442.3,395c0,0-5.4,4.6-17.5,7.3c0,0,0.1-3.1,1.6-4c0,0,14.6-4.4,16.3-7.6
			C442.7,390.6,443.7,392.7,442.3,395z"/>
		<path class="st24" d="M428.3,384.2l1.3-3.3c12.3,1,17.2-4.8,17.2-4.8l-1.9,4.8C441.6,384.8,428.3,384.2,428.3,384.2z"/>
		<path class="st24" d="M442.3,395c0,0-5.4,4.6-17.5,7.3c0,0,0.1-3.1,1.6-4c0,0,14.6-4.4,16.3-7.6
			C442.7,390.6,443.7,392.7,442.3,395z"/>
		<path class="st24" d="M428.3,384.2l1.3-3.3c12.3,1,17.2-4.8,17.2-4.8l-1.9,4.8C441.6,384.8,428.3,384.2,428.3,384.2z"/>
		<path class="st24" d="M442.3,395c0,0-5.4,4.6-17.5,7.3c0,0,0.1-3.1,1.6-4c0,0,14.6-4.4,16.3-7.6
			C442.7,390.6,443.7,392.7,442.3,395z"/>
		<path class="st24" d="M428,416.9l2.7-1.6c0,0-6.5-10-4.4-17.1C426.4,398.2,419.3,399.7,428,416.9z"/>
		<path class="st24" d="M442.3,395c0,0,1.8-5.7-14-10.8c0,0,0-2.3,1.3-3.3C429.7,380.9,447.9,386.4,442.3,395z"/>
		<path class="st24" d="M445,380.9c0,0,1.5-7-0.3-11.1l3-1.2C447.6,368.6,450.2,376,445,380.9z"/>
	</g>
	<g>
		<path class="st25" d="M376.3,479c0,0,12-7.1,7.9-14.4l-2.9-2.9c0,0,3.3,7.6-6.5,13.4l1.1,1.9L376.3,479z"/>
		<path class="st25" d="M381.1,500c0,0,11.5-5,14.7-11.8c0,0,0.5-2-1.7-4.6c0,0,0.2,5.2-12.7,11l0.3,2.7L381.1,500z"/>
		<path class="st26" d="M394,505.5l0.5-5.1c0,0-8.1-1-13.1-5.9l-0.4,5.5C381.1,500,385.2,504.8,394,505.5z"/>
		<path class="st26" d="M367.6,463.3l2.6,4.4c0,0,7-4.1,14-3.1l-3-4.6C381.3,460,375.1,458.6,367.6,463.3z"/>
		<path class="st26" d="M395.8,488.2c0,0-2-7.7-19.5-9.1c0,0-1-1.5-1.4-4c0,0,12.2-1.7,19.4,6.2
			C394.3,481.3,397.3,485.1,395.8,488.2z"/>
	</g>
	<g>
		<path class="st25" d="M180.6,534.3c0,0,11.2-6.6,7.4-13.5l-2.7-2.7c0,0,3,7.1-6,12.5l1,1.8L180.6,534.3z"/>
		<path class="st25" d="M185,553.9c0,0,10.7-4.7,13.8-11.1c0,0,0.5-1.9-1.6-4.3c0,0,0.2,4.9-11.9,10.2l0.3,2.5L185,553.9z"/>
		<path class="st26" d="M197.1,559.1l0.5-4.8c0,0-7.5-0.9-12.2-5.5l-0.4,5.1C185,553.9,188.9,558.4,197.1,559.1z"/>
		<path class="st26" d="M172.4,519.6l2.5,4.1c0,0,6.6-3.8,13.1-2.9l-2.8-4.3C185.2,516.5,179.4,515.2,172.4,519.6z"/>
		<path class="st26" d="M198.8,542.8c0,0-1.9-7.2-18.2-8.5c0,0-0.9-1.4-1.4-3.7c0,0,11.4-1.5,18.1,5.8
			C197.4,536.4,200.2,540,198.8,542.8z"/>
	</g>
	<g>
		<path class="st27" d="M480.7,411.9c0,0,12.4,1.7,13.6-5.8l-0.4-3.7c0,0-1.9,7.1-12,5.8l-0.3,2L480.7,411.9z"/>
		<path class="st27" d="M472.4,429.3c0,0,10.9,2.8,17-0.2c0,0,1.5-1.1,1.4-4.2c0,0-2.7,3.8-15,0.7l-1.3,2.1L472.4,429.3z"/>
		<path class="st28" d="M478.4,440.3l3.2-3.3c0,0-5.1-5.2-6-11.4l-3.3,3.6C472.4,429.3,472.6,434.9,478.4,440.3z"/>
		<path class="st28" d="M483.3,396l-0.6,4.6c0,0,7.2,1.1,11.6,5.6l0.5-4.9C494.8,401.2,491.1,396.8,483.3,396z"/>
		<path class="st28" d="M489.3,429.1c0,0,2.9-6.5-8.6-17.2c0,0,0.1-1.6,1.2-3.6c0,0,9.5,5.6,10.2,15.1
			C492.1,423.4,492.1,427.8,489.3,429.1z"/>
	</g>
	<circle class="st6" cx="89.2" cy="346" r="2.8"/>
	<circle class="st6" cx="502.1" cy="368.2" r="2.8"/>
	<circle class="st6" cx="243.4" cy="196.6" r="2.8"/>
	<circle class="st6" cx="182.3" cy="452.1" r="2.8"/>
	<circle class="st6" cx="388" cy="529.9" r="2.8"/>
	<circle class="st6" cx="469.3" cy="291.8" r="2.8"/>
	<circle class="st6" cx="339.7" cy="193.8" r="2.8"/>
	<circle class="st6" cx="102.6" cy="441.6" r="2.8"/>
	<circle class="st6" cx="342.5" cy="552.4" r="2.8"/>
	<circle class="st6" cx="227" cy="151.4" r="2.8"/>
	<path class="st26" d="M266.6,226.5c0,0-0.2,7.1,7.1,7.8l-7.1,5c0,0-5-2.6-5.4-12.7H266.6z"/>
	<path class="st26" d="M456.5,339.5c0,0-0.2,7.1,7.1,7.8l-7.1,5c0,0-5-2.6-5.4-12.7H456.5z"/>
	<path class="st26" d="M220.8,486.4c0,0-0.2,7.1,7.1,7.8l-7.1,5c0,0-5-2.6-5.4-12.7H220.8z"/>
	<path class="st24" d="M140.5,323.7l-4.4,5.5c0,0-9.9-3.7-12.1-9.7l2.6-6.9C126.5,312.6,133.6,324.6,140.5,323.7z"/>
	<path class="st24" d="M445.9,527l-4.4,5.5c0,0-9.9-3.7-12.1-9.7l2.6-6.9C432,516,439,527.9,445.9,527z"/>
	<path class="st23" d="M156,225.6l5.5-1c0,0,4.1,7.4,2.2,12.2l-5.2,2.8C158.6,239.5,160.6,228.7,156,225.6z"/>
	<path class="st23" d="M412.5,454.8l5.5-1c0,0,4.1,7.4,2.2,12.2l-5.2,2.8C415.1,468.7,417.1,457.8,412.5,454.8z"/>
	<path class="st23" d="M151.5,499.1l5.5-1c0,0,4.1,7.4,2.2,12.2L154,513C154,513,156.1,502.1,151.5,499.1z"/>
	<polygon class="st28" points="347.1,150.6 344.4,164.3 338,163 342.5,149.7 	"/>
</g>
</svg>
